{
	"asset":{
		"generator":"Khronos glTF Blender I/O v3.5.30",
		"version":"2.0"
	},
	"scene":0,
	"scenes":[
		{
			"name":"Scene",
			"nodes":[
				0,
				2
			]
		}
	],
	"nodes":[
		{
			"mesh":0,
			"name":"Cube",
			"scale":[
				0.019999999552965164,
				0.15000000596046448,
				0.019999999552965164
			]
		},
		{
			"mesh":1,
			"name":"Cone",
			"rotation":[
				-0.7071066498756409,
				0,
				0,
				0.70710688829422
			],
			"scale":[
				2.499999761581421,
				2.499999761581421,
				0.28461554646492004
			],
			"translation":[
				0,
				1.2612180709838867,
				0
			]
		},
		{
			"children":[
				1
			],
			"mesh":2,
			"name":"Cube.001",
			"rotation":[
				0,
				0,
				-0.7071067094802856,
				0.7071068286895752
			],
			"scale":[
				0.019999999552965164,
				0.20000000298023224,
				0.019999999552965164
			],
			"translation":[
				-0.01734738051891327,
				0,
				0
			]
		}
	],
	"materials":[
		{
			"doubleSided":true,
			"name":"Material",
			"pbrMetallicRoughness":{
				"baseColorTexture":{
					"index":0
				},
				"metallicFactor":0,
				"roughnessFactor":0.5
			}
		},
		{
			"doubleSided":true,
			"name":"Material.001",
			"pbrMetallicRoughness":{
				"baseColorTexture":{
					"index":1
				},
				"metallicFactor":0,
				"roughnessFactor":0.5
			}
		}
	],
	"meshes":[
		{
			"name":"Cube.001",
			"primitives":[
				{
					"attributes":{
						"POSITION":0,
						"TEXCOORD_0":1,
						"NORMAL":2
					},
					"indices":3,
					"material":0
				}
			]
		},
		{
			"name":"Cone",
			"primitives":[
				{
					"attributes":{
						"POSITION":4,
						"TEXCOORD_0":5,
						"NORMAL":6
					},
					"indices":7,
					"material":1
				}
			]
		},
		{
			"name":"Cube.002",
			"primitives":[
				{
					"attributes":{
						"POSITION":8,
						"TEXCOORD_0":9,
						"NORMAL":10
					},
					"indices":3,
					"material":0
				}
			]
		}
	],
	"textures":[
		{
			"sampler":0,
			"source":0
		},
		{
			"sampler":0,
			"source":1
		}
	],
	"images":[
		{
			"mimeType":"image/png",
			"name":"image",
			"uri":"../textures/image.png"
		},
		{
			"mimeType":"image/png",
			"name":"image2",
			"uri":"../textures/image2.png"
		}
	],
	"accessors":[
		{
			"bufferView":0,
			"componentType":5126,
			"count":24,
			"max":[
				1,
				1,
				1
			],
			"min":[
				-1,
				-1,
				-1
			],
			"type":"VEC3"
		},
		{
			"bufferView":1,
			"componentType":5126,
			"count":24,
			"type":"VEC2"
		},
		{
			"bufferView":2,
			"componentType":5126,
			"count":24,
			"type":"VEC3"
		},
		{
			"bufferView":3,
			"componentType":5123,
			"count":36,
			"type":"SCALAR"
		},
		{
			"bufferView":4,
			"componentType":5126,
			"count":128,
			"max":[
				1,
				1,
				1
			],
			"min":[
				-1,
				-1,
				-1
			],
			"type":"VEC3"
		},
		{
			"bufferView":5,
			"componentType":5126,
			"count":128,
			"type":"VEC2"
		},
		{
			"bufferView":6,
			"componentType":5126,
			"count":128,
			"type":"VEC3"
		},
		{
			"bufferView":7,
			"componentType":5123,
			"count":186,
			"type":"SCALAR"
		},
		{
			"bufferView":8,
			"componentType":5126,
			"count":24,
			"max":[
				1,
				1,
				1
			],
			"min":[
				-1,
				-1,
				-1
			],
			"type":"VEC3"
		},
		{
			"bufferView":9,
			"componentType":5126,
			"count":24,
			"type":"VEC2"
		},
		{
			"bufferView":10,
			"componentType":5126,
			"count":24,
			"type":"VEC3"
		}
	],
	"bufferViews":[
		{
			"buffer":0,
			"byteLength":288,
			"byteOffset":0,
			"target":34962
		},
		{
			"buffer":0,
			"byteLength":192,
			"byteOffset":288,
			"target":34962
		},
		{
			"buffer":0,
			"byteLength":288,
			"byteOffset":480,
			"target":34962
		},
		{
			"buffer":0,
			"byteLength":72,
			"byteOffset":768,
			"target":34963
		},
		{
			"buffer":0,
			"byteLength":1536,
			"byteOffset":840,
			"target":34962
		},
		{
			"buffer":0,
			"byteLength":1024,
			"byteOffset":2376,
			"target":34962
		},
		{
			"buffer":0,
			"byteLength":1536,
			"byteOffset":3400,
			"target":34962
		},
		{
			"buffer":0,
			"byteLength":372,
			"byteOffset":4936,
			"target":34963
		},
		{
			"buffer":0,
			"byteLength":288,
			"byteOffset":5308,
			"target":34962
		},
		{
			"buffer":0,
			"byteLength":192,
			"byteOffset":5596,
			"target":34962
		},
		{
			"buffer":0,
			"byteLength":288,
			"byteOffset":5788,
			"target":34962
		}
	],
	"samplers":[
		{
			"magFilter":9729,
			"minFilter":9987
		}
	],
	"buffers":[
		{
			"byteLength":6076,
			"uri":"model.bin"
		}
	]
}
