{
	"asset":{
		"generator":"Khronos glTF Blender I/O v3.5.30",
		"version":"2.0"
	},
	"extensionsUsed":[
		"KHR_materials_specular",
		"KHR_materials_ior"
	],
	"scene":0,
	"scenes":[
		{
			"name":"Scene",
			"nodes":[
				4
			]
		}
	],
	"nodes":[
		{
			"mesh":0,
			"name":"propeller.1",
			"rotation":[
				0,
				0.7071068286895752,
				0,
				0.7071068286895752
			],
			"translation":[
				-3.226325511932373,
				-0.6930763721466064,
				-2.797166109085083
			]
		},
		{
			"mesh":1,
			"name":"propeller.2",
			"rotation":[
				0,
				0.7071068286895752,
				0,
				0.7071068286895752
			],
			"translation":[
				-3.023965358734131,
				-0.7501987814903259,
				2.409689426422119
			]
		},
		{
			"mesh":2,
			"name":"propeller.3",
			"rotation":[
				0,
				0.7071068286895752,
				0,
				0.7071068286895752
			],
			"translation":[
				3.0152411460876465,
				-0.7508682608604431,
				2.3502535820007324
			]
		},
		{
			"mesh":3,
			"name":"propeller.4",
			"rotation":[
				0,
				0.7071068286895752,
				0,
				0.7071068286895752
			],
			"translation":[
				3.3037233352661133,
				-0.6929054856300354,
				-2.7819535732269287
			]
		},
		{
			"children":[
				0,
				1,
				2,
				3
			],
			"mesh":4,
			"name":"PickUP_UAV_LOD0",
			"rotation":[
				0.5,
				-0.5,
				-0.5000000596046448,
				0.5
			],
			"scale":[
				0.05000000074505806,
				0.05000000074505806,
				0.05000000074505806
			]
		}
	],
	"animations":[
		{
			"channels":[
				{
					"sampler":0,
					"target":{
						"node":0,
						"path":"rotation"
					}
				}
			],
			"name":"PickUP_UAV_LOD0.004Action.001",
			"samplers":[
				{
					"input":18,
					"interpolation":"LINEAR",
					"output":19
				}
			]
		},
		{
			"channels":[
				{
					"sampler":0,
					"target":{
						"node":1,
						"path":"rotation"
					}
				}
			],
			"name":"PickUP_UAV_LOD0.001Action",
			"samplers":[
				{
					"input":18,
					"interpolation":"LINEAR",
					"output":20
				}
			]
		},
		{
			"channels":[
				{
					"sampler":0,
					"target":{
						"node":2,
						"path":"rotation"
					}
				}
			],
			"name":"PickUP_UAV_LOD0.004Action.001",
			"samplers":[
				{
					"input":18,
					"interpolation":"LINEAR",
					"output":21
				}
			]
		},
		{
			"channels":[
				{
					"sampler":0,
					"target":{
						"node":3,
						"path":"rotation"
					}
				}
			],
			"name":"PickUP_UAV_LOD0.001Action",
			"samplers":[
				{
					"input":18,
					"interpolation":"LINEAR",
					"output":22
				}
			]
		}
	],
	"materials":[
		{
			"doubleSided":true,
			"extensions":{
				"KHR_materials_specular":{
					"specularColorFactor":[
						0,
						0,
						0
					]
				},
				"KHR_materials_ior":{
					"ior":1.4500000476837158
				}
			},
			"name":"PickUp_UAV_D",
			"pbrMetallicRoughness":{
				"baseColorTexture":{
					"index":0
				},
				"metallicFactor":0
			}
		}
	],
	"meshes":[
		{
			"name":"PickUP_UAV_LOD0.001",
			"primitives":[
				{
					"attributes":{
						"POSITION":0,
						"TEXCOORD_0":1,
						"NORMAL":2
					},
					"indices":3,
					"material":0
				}
			]
		},
		{
			"name":"PickUP_UAV_LOD0.002",
			"primitives":[
				{
					"attributes":{
						"POSITION":4,
						"TEXCOORD_0":5,
						"NORMAL":6
					},
					"indices":7,
					"material":0
				}
			]
		},
		{
			"name":"PickUP_UAV_LOD0.003",
			"primitives":[
				{
					"attributes":{
						"POSITION":8,
						"TEXCOORD_0":9,
						"NORMAL":10
					},
					"indices":3,
					"material":0
				}
			]
		},
		{
			"name":"PickUP_UAV_LOD0.004",
			"primitives":[
				{
					"attributes":{
						"POSITION":11,
						"TEXCOORD_0":12,
						"NORMAL":13
					},
					"indices":7,
					"material":0
				}
			]
		},
		{
			"name":"PickUP_UAV_LOD0",
			"primitives":[
				{
					"attributes":{
						"POSITION":14,
						"TEXCOORD_0":15,
						"NORMAL":16
					},
					"indices":17,
					"material":0
				}
			]
		}
	],
	"textures":[
		{
			"sampler":0,
			"source":0
		}
	],
	"images":[
		{
			"mimeType":"image/png",
			"name":"Event_UAV_D",
			"uri":"../textures/Event_UAV_D.png"
		}
	],
	"accessors":[
		{
			"bufferView":0,
			"componentType":5126,
			"count":14,
			"max":[
				0.9498574733734131,
				0.05531120300292969,
				1.8168532848358154
			],
			"min":[
				-0.9496197700500488,
				-0.025371789932250977,
				-1.8171305656433105
			],
			"type":"VEC3"
		},
		{
			"bufferView":1,
			"componentType":5126,
			"count":14,
			"type":"VEC2"
		},
		{
			"bufferView":2,
			"componentType":5126,
			"count":14,
			"type":"VEC3"
		},
		{
			"bufferView":3,
			"componentType":5123,
			"count":36,
			"type":"SCALAR"
		},
		{
			"bufferView":4,
			"componentType":5126,
			"count":14,
			"max":[
				0.7547192573547363,
				0.05568361282348633,
				1.906606912612915
			],
			"min":[
				-0.7545068264007568,
				-0.026002168655395508,
				-1.9060041904449463
			],
			"type":"VEC3"
		},
		{
			"bufferView":5,
			"componentType":5126,
			"count":14,
			"type":"VEC2"
		},
		{
			"bufferView":6,
			"componentType":5126,
			"count":14,
			"type":"VEC3"
		},
		{
			"bufferView":7,
			"componentType":5123,
			"count":36,
			"type":"SCALAR"
		},
		{
			"bufferView":8,
			"componentType":5126,
			"count":14,
			"max":[
				0.754594087600708,
				0.055683135986328125,
				1.9064996242523193
			],
			"min":[
				-0.7546310424804688,
				-0.02600383758544922,
				-1.9062473773956299
			],
			"type":"VEC3"
		},
		{
			"bufferView":9,
			"componentType":5126,
			"count":14,
			"type":"VEC2"
		},
		{
			"bufferView":10,
			"componentType":5126,
			"count":14,
			"type":"VEC3"
		},
		{
			"bufferView":11,
			"componentType":5126,
			"count":14,
			"max":[
				0.9497017860412598,
				0.05531120300292969,
				1.8169018030166626
			],
			"min":[
				-0.9497754573822021,
				-0.02537059783935547,
				-1.8170833587646484
			],
			"type":"VEC3"
		},
		{
			"bufferView":12,
			"componentType":5126,
			"count":14,
			"type":"VEC2"
		},
		{
			"bufferView":13,
			"componentType":5126,
			"count":14,
			"type":"VEC3"
		},
		{
			"bufferView":14,
			"componentType":5126,
			"count":325,
			"max":[
				3.771469831466675,
				2.3931968212127686,
				2.8166513442993164
			],
			"min":[
				-3.5874340534210205,
				-0.9335780143737793,
				-3.1284756660461426
			],
			"type":"VEC3"
		},
		{
			"bufferView":15,
			"componentType":5126,
			"count":325,
			"type":"VEC2"
		},
		{
			"bufferView":16,
			"componentType":5126,
			"count":325,
			"type":"VEC3"
		},
		{
			"bufferView":17,
			"componentType":5123,
			"count":681,
			"type":"SCALAR"
		},
		{
			"bufferView":18,
			"componentType":5126,
			"count":250,
			"max":[
				10.416666666666666
			],
			"min":[
				0.041666666666666664
			],
			"type":"SCALAR"
		},
		{
			"bufferView":19,
			"componentType":5126,
			"count":250,
			"type":"VEC4"
		},
		{
			"bufferView":20,
			"componentType":5126,
			"count":250,
			"type":"VEC4"
		},
		{
			"bufferView":21,
			"componentType":5126,
			"count":250,
			"type":"VEC4"
		},
		{
			"bufferView":22,
			"componentType":5126,
			"count":250,
			"type":"VEC4"
		}
	],
	"bufferViews":[
		{
			"buffer":0,
			"byteLength":168,
			"byteOffset":0,
			"target":34962
		},
		{
			"buffer":0,
			"byteLength":112,
			"byteOffset":168,
			"target":34962
		},
		{
			"buffer":0,
			"byteLength":168,
			"byteOffset":280,
			"target":34962
		},
		{
			"buffer":0,
			"byteLength":72,
			"byteOffset":448,
			"target":34963
		},
		{
			"buffer":0,
			"byteLength":168,
			"byteOffset":520,
			"target":34962
		},
		{
			"buffer":0,
			"byteLength":112,
			"byteOffset":688,
			"target":34962
		},
		{
			"buffer":0,
			"byteLength":168,
			"byteOffset":800,
			"target":34962
		},
		{
			"buffer":0,
			"byteLength":72,
			"byteOffset":968,
			"target":34963
		},
		{
			"buffer":0,
			"byteLength":168,
			"byteOffset":1040,
			"target":34962
		},
		{
			"buffer":0,
			"byteLength":112,
			"byteOffset":1208,
			"target":34962
		},
		{
			"buffer":0,
			"byteLength":168,
			"byteOffset":1320,
			"target":34962
		},
		{
			"buffer":0,
			"byteLength":168,
			"byteOffset":1488,
			"target":34962
		},
		{
			"buffer":0,
			"byteLength":112,
			"byteOffset":1656,
			"target":34962
		},
		{
			"buffer":0,
			"byteLength":168,
			"byteOffset":1768,
			"target":34962
		},
		{
			"buffer":0,
			"byteLength":3900,
			"byteOffset":1936,
			"target":34962
		},
		{
			"buffer":0,
			"byteLength":2600,
			"byteOffset":5836,
			"target":34962
		},
		{
			"buffer":0,
			"byteLength":3900,
			"byteOffset":8436,
			"target":34962
		},
		{
			"buffer":0,
			"byteLength":1362,
			"byteOffset":12336,
			"target":34963
		},
		{
			"buffer":0,
			"byteLength":1000,
			"byteOffset":13700
		},
		{
			"buffer":0,
			"byteLength":4000,
			"byteOffset":14700
		},
		{
			"buffer":0,
			"byteLength":4000,
			"byteOffset":18700
		},
		{
			"buffer":0,
			"byteLength":4000,
			"byteOffset":22700
		},
		{
			"buffer":0,
			"byteLength":4000,
			"byteOffset":26700
		}
	],
	"samplers":[
		{
			"magFilter":9729,
			"minFilter":9987
		}
	],
	"buffers":[
		{
			"byteLength":30700,
			"uri":"model.bin"
		}
	]
}
