# Blender 3.5.0
# www.blender.org
o PickUP_UAV_LOD0
v 0.073821 0.000250 -0.018816
v 0.073153 -0.038087 -0.023916
v 0.073757 0.039881 -0.019923
v 0.078929 -0.020434 -0.029068
v -0.085634 -0.019170 -0.026922
v -0.089472 0.000250 -0.021835
v -0.085492 0.018037 -0.016511
v 0.079078 0.019197 -0.018004
v -0.049490 -0.064528 0.115645
v 0.035160 -0.016419 0.023428
v 0.038970 -0.019439 0.024816
v 0.034885 -0.064822 0.115008
v 0.035886 -0.024994 0.023588
v 0.034892 -0.058992 0.116335
v -0.051985 -0.058097 0.117653
v 0.033726 -0.020389 0.023785
v 0.032245 -0.061058 0.114772
v 0.031478 -0.061020 0.114735
v -0.049490 -0.061020 0.115645
v -0.054018 -0.062220 0.119666
v -0.057761 -0.020384 0.024770
v -0.052810 -0.059054 0.117735
v -0.056023 -0.025001 0.024618
v -0.049176 -0.061054 0.115660
v -0.052542 -0.020384 0.024720
v -0.052805 -0.066034 0.117772
v -0.056174 -0.030306 0.018415
v 0.033863 0.061952 0.117775
v -0.051985 0.065611 0.117652
v 0.035160 0.016920 0.023428
v 0.039192 0.020889 0.023726
v 0.036594 0.064142 0.119110
v 0.035894 0.025549 0.023564
v 0.034892 0.059496 0.116335
v -0.051985 0.058600 0.117653
v 0.033726 0.020889 0.023786
v 0.032244 0.061562 0.114772
v -0.049490 0.061523 0.115645
v 0.031478 0.061523 0.114735
v -0.054018 0.062720 0.119666
v -0.057761 0.020884 0.024770
v -0.052810 0.059558 0.117731
v -0.056032 0.025555 0.024594
v -0.049176 0.061558 0.115660
v -0.052542 0.020884 0.024720
v -0.052805 0.066534 0.117772
v -0.056174 0.030806 0.018415
v 0.140056 0.162073 -0.028839
v 0.074251 0.049248 -0.028100
v 0.140149 0.162239 -0.028683
v 0.075212 0.048958 -0.027954
v 0.139042 -0.167921 -0.028828
v 0.074343 -0.052720 -0.028101
v 0.138996 -0.167934 -0.028671
v 0.074288 -0.052736 -0.027943
v -0.115916 -0.148596 -0.031748
v -0.070347 -0.046154 -0.032260
v -0.115796 -0.148697 -0.031592
v -0.070493 -0.046127 -0.032101
v -0.118893 0.149028 -0.031714
v -0.073328 0.046586 -0.032226
v -0.118776 0.149127 -0.031559
v -0.073470 0.046559 -0.032068
v -0.100696 -0.160440 -0.043636
v -0.132934 -0.141400 -0.043196
v -0.100235 -0.160263 -0.043642
v -0.129740 -0.154222 -0.043468
v -0.103437 -0.147848 -0.043763
v 0.117828 -0.178862 -0.046039
v 0.151905 -0.163342 -0.046443
v 0.118565 -0.176919 -0.046211
v 0.139578 -0.158637 -0.046494
v 0.129713 -0.183838 -0.046383
v -0.105401 0.160032 -0.043564
v -0.140487 0.147021 -0.043170
v -0.116934 0.165650 -0.043612
v -0.128958 0.141403 -0.043476
v 0.155950 0.154754 -0.046442
v 0.121937 0.170367 -0.046060
v 0.151767 0.166880 -0.046631
v 0.126118 0.158238 -0.046342
v -0.061355 -0.052127 -0.034656
v -0.079347 -0.032740 -0.034453
v -0.079691 -0.032630 -0.034784
v -0.061021 -0.052228 -0.034993
v -0.055366 0.041455 -0.035056
v -0.054858 0.041459 0.009885
v -0.091304 0.042627 -0.034652
v -0.090802 0.042630 0.010289
v -0.082672 0.051838 -0.034750
v -0.063998 0.032244 -0.034960
v 0.068707 -0.025928 -0.036006
v 0.068533 -0.063581 -0.036004
v 0.051060 -0.044729 -0.036030
v 0.059363 -0.034808 -0.036347
v 0.078033 -0.054406 -0.036557
v 0.082548 0.035281 -0.036272
v 0.064555 0.054666 -0.036070
v 0.064213 0.054770 -0.036400
v 0.082883 0.035176 -0.036610
vn -0.0243 0.1001 -0.9947
vn -0.0029 -0.2350 0.9720
s 0
f 22//1 14//1 12//1 26//1
f 42//2 34//2 32//2 46//2
l 4 5
l 6 1
l 11 12
l 13 14
l 31 32
l 33 34
l 92 93
l 66 65
l 71 70
l 79 78
l 83 82
l 88 89
l 94 92
l 98 97
l 34 35
l 84 85
l 2 3
l 7 8
l 14 15
l 16 17
l 18 19
l 20 21
l 22 23
l 24 25
l 26 27
l 28 29
l 28 30
l 36 37
l 38 39
l 40 41
l 42 43
l 44 45
l 46 47
l 48 49
l 50 51
l 52 53
l 54 55
l 56 57
l 58 59
l 60 61
l 62 63
l 64 65
l 67 68
l 69 70
l 72 73
l 74 75
l 12 10
l 80 81
l 86 87
l 99 100
l 90 91
l 95 96
l 76 77
l 12 9
