{
	"asset":{
		"generator":"Khronos glTF Blender I/O v3.5.30",
		"version":"2.0"
	},
	"scene":0,
	"scenes":[
		{
			"name":"Scene",
			"nodes":[
				8
			]
		}
	],
	"nodes":[
		{
			"mesh":0,
			"name":"aileron.left",
			"rotation":[
				0.2605808675289154,
				-0.029908474534749985,
				-0.05187832564115524,
				0.9635931849479675
			],
			"translation":[
				141.4578399658203,
				15.577866554260254,
				31.107059478759766
			]
		},
		{
			"mesh":1,
			"name":"aileron.right",
			"rotation":[
				-0.2542657256126404,
				-0.028309358283877373,
				-0.05893061310052872,
				0.9649221301078796
			],
			"translation":[
				-143.3411407470703,
				17.21830940246582,
				30.31010627746582
			]
		},
		{
			"mesh":2,
			"name":"cockpit",
			"translation":[
				0.43302419781684875,
				-0.007289976347237825,
				-0.01342149917036295
			]
		},
		{
			"mesh":3,
			"name":"elevator",
			"rotation":[
				0.20029926300048828,
				0,
				0,
				0.9797347784042358
			],
			"translation":[
				0.8011971712112427,
				-9.301862716674805,
				212.35772705078125
			]
		},
		{
			"mesh":4,
			"name":"flap.left"
		},
		{
			"mesh":5,
			"name":"flap.right"
		},
		{
			"mesh":6,
			"name":"propeller",
			"rotation":[
				0,
				-0.00023526478616986424,
				0.012161261402070522,
				0.9999260306358337
			],
			"translation":[
				0.654080867767334,
				1.6531322002410889,
				-93.55342864990234
			]
		},
		{
			"mesh":7,
			"name":"rudder",
			"rotation":[
				-0.010529739782214165,
				0.4326634109020233,
				0.008374931290745735,
				0.9014551639556885
			],
			"translation":[
				0.7009384632110596,
				-4.256702423095703,
				220.79017639160156
			]
		},
		{
			"children":[
				0,
				1,
				2,
				3,
				4,
				5,
				6,
				7
			],
			"mesh":8,
			"name":"plane",
			"rotation":[
				0.500464916229248,
				-0.489756315946579,
				-0.5115914940834045,
				0.49794358015060425
			],
			"scale":[
				0.002400011755526066,
				0.0024000131525099277,
				0.002400010358542204
			]
		}
	],
	"animations":[
		{
			"channels":[
				{
					"sampler":0,
					"target":{
						"node":0,
						"path":"rotation"
					}
				},
				{
					"sampler":1,
					"target":{
						"node":0,
						"path":"translation"
					}
				}
			],
			"name":"aileron.leftAction",
			"samplers":[
				{
					"input":36,
					"interpolation":"LINEAR",
					"output":37
				},
				{
					"input":36,
					"interpolation":"LINEAR",
					"output":38
				}
			]
		},
		{
			"channels":[
				{
					"sampler":0,
					"target":{
						"node":1,
						"path":"rotation"
					}
				},
				{
					"sampler":1,
					"target":{
						"node":1,
						"path":"translation"
					}
				}
			],
			"name":"aileron.rightAction",
			"samplers":[
				{
					"input":36,
					"interpolation":"LINEAR",
					"output":39
				},
				{
					"input":36,
					"interpolation":"LINEAR",
					"output":40
				}
			]
		},
		{
			"channels":[
				{
					"sampler":0,
					"target":{
						"node":3,
						"path":"rotation"
					}
				}
			],
			"name":"elevatorAction",
			"samplers":[
				{
					"input":36,
					"interpolation":"LINEAR",
					"output":41
				}
			]
		},
		{
			"channels":[
				{
					"sampler":0,
					"target":{
						"node":6,
						"path":"rotation"
					}
				}
			],
			"name":"Object001_Material #85_0.001Action",
			"samplers":[
				{
					"input":36,
					"interpolation":"LINEAR",
					"output":42
				}
			]
		},
		{
			"channels":[
				{
					"sampler":0,
					"target":{
						"node":7,
						"path":"rotation"
					}
				}
			],
			"name":"rudderAction.001",
			"samplers":[
				{
					"input":36,
					"interpolation":"LINEAR",
					"output":43
				}
			]
		}
	],
	"materials":[
		{
			"doubleSided":true,
			"name":"Material_85",
			"normalTexture":{
				"index":0
			},
			"occlusionTexture":{
				"index":1
			},
			"pbrMetallicRoughness":{
				"baseColorTexture":{
					"index":2
				},
				"metallicRoughnessTexture":{
					"index":1
				}
			}
		},
		{
			"alphaMode":"BLEND",
			"doubleSided":true,
			"name":"Material_86",
			"normalTexture":{
				"index":3
			},
			"occlusionTexture":{
				"index":4
			},
			"pbrMetallicRoughness":{
				"baseColorTexture":{
					"index":5
				},
				"metallicRoughnessTexture":{
					"index":4
				}
			}
		}
	],
	"meshes":[
		{
			"name":"Object001_Material #85_0.005",
			"primitives":[
				{
					"attributes":{
						"POSITION":0,
						"TEXCOORD_0":1,
						"NORMAL":2
					},
					"indices":3,
					"material":0
				}
			]
		},
		{
			"name":"Object001_Material #85_0.003",
			"primitives":[
				{
					"attributes":{
						"POSITION":4,
						"TEXCOORD_0":5,
						"NORMAL":6
					},
					"indices":7,
					"material":0
				}
			]
		},
		{
			"name":"Object002_Material #86_0",
			"primitives":[
				{
					"attributes":{
						"POSITION":8,
						"TEXCOORD_0":9,
						"NORMAL":10
					},
					"indices":11,
					"material":1
				}
			]
		},
		{
			"name":"Object001_Material #85_0.006",
			"primitives":[
				{
					"attributes":{
						"POSITION":12,
						"TEXCOORD_0":13,
						"NORMAL":14
					},
					"indices":15,
					"material":0
				}
			]
		},
		{
			"name":"Object001_Material #85_0.004",
			"primitives":[
				{
					"attributes":{
						"POSITION":16,
						"TEXCOORD_0":17,
						"NORMAL":18
					},
					"indices":19,
					"material":0
				}
			]
		},
		{
			"name":"Object001_Material #85_0.002",
			"primitives":[
				{
					"attributes":{
						"POSITION":20,
						"TEXCOORD_0":21,
						"NORMAL":22
					},
					"indices":23,
					"material":0
				}
			]
		},
		{
			"name":"Object001_Material #85_0.001",
			"primitives":[
				{
					"attributes":{
						"POSITION":24,
						"TEXCOORD_0":25,
						"NORMAL":26
					},
					"indices":27,
					"material":0
				}
			]
		},
		{
			"name":"Object001_Material #85_0.007",
			"primitives":[
				{
					"attributes":{
						"POSITION":28,
						"TEXCOORD_0":29,
						"NORMAL":30
					},
					"indices":31,
					"material":0
				}
			]
		},
		{
			"name":"Object001_Material #85_0",
			"primitives":[
				{
					"attributes":{
						"POSITION":32,
						"TEXCOORD_0":33,
						"NORMAL":34
					},
					"indices":35,
					"material":0
				}
			]
		}
	],
	"textures":[
		{
			"sampler":0,
			"source":0
		},
		{
			"sampler":0,
			"source":1
		},
		{
			"sampler":0,
			"source":2
		},
		{
			"sampler":0,
			"source":0
		},
		{
			"sampler":0,
			"source":1
		},
		{
			"sampler":0,
			"source":3
		}
	],
	"images":[
		{
			"mimeType":"image/png",
			"name":"Material_85_normal",
			"uri":"../textures/Material_85_normal.png"
		},
		{
			"mimeType":"image/png",
			"name":"Material_85_metallicRoughness",
			"uri":"../textures/Material_85_metallicRoughness.png"
		},
		{
			"mimeType":"image/png",
			"name":"Material_85_baseColor",
			"uri":"../textures/Material_85_baseColor.png"
		},
		{
			"mimeType":"image/png",
			"name":"Material_86_baseColor",
			"uri":"../textures/Material_86_baseColor.png"
		}
	],
	"accessors":[
		{
			"bufferView":0,
			"componentType":5126,
			"count":66,
			"max":[
				40.27781677246094,
				5.94472599029541,
				19.230329513549805
			],
			"min":[
				-36.522789001464844,
				-4.100531578063965,
				-11.586069107055664
			],
			"type":"VEC3"
		},
		{
			"bufferView":1,
			"componentType":5126,
			"count":66,
			"type":"VEC2"
		},
		{
			"bufferView":2,
			"componentType":5126,
			"count":66,
			"type":"VEC3"
		},
		{
			"bufferView":3,
			"componentType":5123,
			"count":198,
			"type":"SCALAR"
		},
		{
			"bufferView":4,
			"componentType":5126,
			"count":66,
			"max":[
				39.32927703857422,
				5.750177383422852,
				20.05527114868164
			],
			"min":[
				-37.4713134765625,
				-4.295080184936523,
				-10.761127471923828
			],
			"type":"VEC3"
		},
		{
			"bufferView":5,
			"componentType":5126,
			"count":66,
			"type":"VEC2"
		},
		{
			"bufferView":6,
			"componentType":5126,
			"count":66,
			"type":"VEC3"
		},
		{
			"bufferView":7,
			"componentType":5123,
			"count":198,
			"type":"SCALAR"
		},
		{
			"bufferView":8,
			"componentType":5126,
			"count":64,
			"max":[
				10.382345199584961,
				-10.898815155029297,
				72.50466918945312
			],
			"min":[
				-9.764045715332031,
				-22.68301010131836,
				27.95224952697754
			],
			"type":"VEC3"
		},
		{
			"bufferView":9,
			"componentType":5126,
			"count":64,
			"type":"VEC2"
		},
		{
			"bufferView":10,
			"componentType":5126,
			"count":64,
			"type":"VEC3"
		},
		{
			"bufferView":11,
			"componentType":5123,
			"count":114,
			"type":"SCALAR"
		},
		{
			"bufferView":12,
			"componentType":5126,
			"count":150,
			"max":[
				59.04148483276367,
				1.654120922088623,
				20.778335571289062
			],
			"min":[
				-59.70578384399414,
				-1.873002052307129,
				-5.2207489013671875
			],
			"type":"VEC3"
		},
		{
			"bufferView":13,
			"componentType":5126,
			"count":150,
			"type":"VEC2"
		},
		{
			"bufferView":14,
			"componentType":5126,
			"count":150,
			"type":"VEC3"
		},
		{
			"bufferView":15,
			"componentType":5123,
			"count":534,
			"type":"SCALAR"
		},
		{
			"bufferView":16,
			"componentType":5126,
			"count":57,
			"max":[
				104.34965515136719,
				36.05034637451172,
				57.36434555053711
			],
			"min":[
				30.336139678955078,
				20.881948471069336,
				41.35133361816406
			],
			"type":"VEC3"
		},
		{
			"bufferView":17,
			"componentType":5126,
			"count":57,
			"type":"VEC2"
		},
		{
			"bufferView":18,
			"componentType":5126,
			"count":57,
			"type":"VEC3"
		},
		{
			"bufferView":19,
			"componentType":5123,
			"count":108,
			"type":"SCALAR"
		},
		{
			"bufferView":20,
			"componentType":5126,
			"count":57,
			"max":[
				-29.398048400878906,
				36.05034637451172,
				57.36434555053711
			],
			"min":[
				-103.41156005859375,
				20.881948471069336,
				41.35133361816406
			],
			"type":"VEC3"
		},
		{
			"bufferView":21,
			"componentType":5126,
			"count":57,
			"type":"VEC2"
		},
		{
			"bufferView":22,
			"componentType":5126,
			"count":57,
			"type":"VEC3"
		},
		{
			"bufferView":23,
			"componentType":5123,
			"count":108,
			"type":"SCALAR"
		},
		{
			"bufferView":24,
			"componentType":5126,
			"count":434,
			"max":[
				47.65195083618164,
				45.81351852416992,
				8.430004119873047
			],
			"min":[
				-44.84157943725586,
				-46.680049896240234,
				-14.827106475830078
			],
			"type":"VEC3"
		},
		{
			"bufferView":25,
			"componentType":5126,
			"count":434,
			"type":"VEC2"
		},
		{
			"bufferView":26,
			"componentType":5126,
			"count":434,
			"type":"VEC3"
		},
		{
			"bufferView":27,
			"componentType":5123,
			"count":1149,
			"type":"SCALAR"
		},
		{
			"bufferView":28,
			"componentType":5126,
			"count":222,
			"max":[
				3.515925645828247,
				14.11660099029541,
				20.026168823242188
			],
			"min":[
				-7.4693603515625,
				-47.135921478271484,
				-10.154281616210938
			],
			"type":"VEC3"
		},
		{
			"bufferView":29,
			"componentType":5126,
			"count":222,
			"type":"VEC2"
		},
		{
			"bufferView":30,
			"componentType":5126,
			"count":222,
			"type":"VEC3"
		},
		{
			"bufferView":31,
			"componentType":5123,
			"count":930,
			"type":"SCALAR"
		},
		{
			"bufferView":32,
			"componentType":5126,
			"count":5144,
			"max":[
				208.80136108398438,
				40.56378936767578,
				221.91090393066406
			],
			"min":[
				-207.86325073242188,
				-49.10078430175781,
				-87.24759674072266
			],
			"type":"VEC3"
		},
		{
			"bufferView":33,
			"componentType":5126,
			"count":5144,
			"type":"VEC2"
		},
		{
			"bufferView":34,
			"componentType":5126,
			"count":5144,
			"type":"VEC3"
		},
		{
			"bufferView":35,
			"componentType":5123,
			"count":15552,
			"type":"SCALAR"
		},
		{
			"bufferView":36,
			"componentType":5126,
			"count":250,
			"max":[
				10.416666666666666
			],
			"min":[
				0.041666666666666664
			],
			"type":"SCALAR"
		},
		{
			"bufferView":37,
			"componentType":5126,
			"count":250,
			"type":"VEC4"
		},
		{
			"bufferView":38,
			"componentType":5126,
			"count":250,
			"type":"VEC3"
		},
		{
			"bufferView":39,
			"componentType":5126,
			"count":250,
			"type":"VEC4"
		},
		{
			"bufferView":40,
			"componentType":5126,
			"count":250,
			"type":"VEC3"
		},
		{
			"bufferView":41,
			"componentType":5126,
			"count":250,
			"type":"VEC4"
		},
		{
			"bufferView":42,
			"componentType":5126,
			"count":250,
			"type":"VEC4"
		},
		{
			"bufferView":43,
			"componentType":5126,
			"count":250,
			"type":"VEC4"
		}
	],
	"bufferViews":[
		{
			"buffer":0,
			"byteLength":792,
			"byteOffset":0,
			"target":34962
		},
		{
			"buffer":0,
			"byteLength":528,
			"byteOffset":792,
			"target":34962
		},
		{
			"buffer":0,
			"byteLength":792,
			"byteOffset":1320,
			"target":34962
		},
		{
			"buffer":0,
			"byteLength":396,
			"byteOffset":2112,
			"target":34963
		},
		{
			"buffer":0,
			"byteLength":792,
			"byteOffset":2508,
			"target":34962
		},
		{
			"buffer":0,
			"byteLength":528,
			"byteOffset":3300,
			"target":34962
		},
		{
			"buffer":0,
			"byteLength":792,
			"byteOffset":3828,
			"target":34962
		},
		{
			"buffer":0,
			"byteLength":396,
			"byteOffset":4620,
			"target":34963
		},
		{
			"buffer":0,
			"byteLength":768,
			"byteOffset":5016,
			"target":34962
		},
		{
			"buffer":0,
			"byteLength":512,
			"byteOffset":5784,
			"target":34962
		},
		{
			"buffer":0,
			"byteLength":768,
			"byteOffset":6296,
			"target":34962
		},
		{
			"buffer":0,
			"byteLength":228,
			"byteOffset":7064,
			"target":34963
		},
		{
			"buffer":0,
			"byteLength":1800,
			"byteOffset":7292,
			"target":34962
		},
		{
			"buffer":0,
			"byteLength":1200,
			"byteOffset":9092,
			"target":34962
		},
		{
			"buffer":0,
			"byteLength":1800,
			"byteOffset":10292,
			"target":34962
		},
		{
			"buffer":0,
			"byteLength":1068,
			"byteOffset":12092,
			"target":34963
		},
		{
			"buffer":0,
			"byteLength":684,
			"byteOffset":13160,
			"target":34962
		},
		{
			"buffer":0,
			"byteLength":456,
			"byteOffset":13844,
			"target":34962
		},
		{
			"buffer":0,
			"byteLength":684,
			"byteOffset":14300,
			"target":34962
		},
		{
			"buffer":0,
			"byteLength":216,
			"byteOffset":14984,
			"target":34963
		},
		{
			"buffer":0,
			"byteLength":684,
			"byteOffset":15200,
			"target":34962
		},
		{
			"buffer":0,
			"byteLength":456,
			"byteOffset":15884,
			"target":34962
		},
		{
			"buffer":0,
			"byteLength":684,
			"byteOffset":16340,
			"target":34962
		},
		{
			"buffer":0,
			"byteLength":216,
			"byteOffset":17024,
			"target":34963
		},
		{
			"buffer":0,
			"byteLength":5208,
			"byteOffset":17240,
			"target":34962
		},
		{
			"buffer":0,
			"byteLength":3472,
			"byteOffset":22448,
			"target":34962
		},
		{
			"buffer":0,
			"byteLength":5208,
			"byteOffset":25920,
			"target":34962
		},
		{
			"buffer":0,
			"byteLength":2298,
			"byteOffset":31128,
			"target":34963
		},
		{
			"buffer":0,
			"byteLength":2664,
			"byteOffset":33428,
			"target":34962
		},
		{
			"buffer":0,
			"byteLength":1776,
			"byteOffset":36092,
			"target":34962
		},
		{
			"buffer":0,
			"byteLength":2664,
			"byteOffset":37868,
			"target":34962
		},
		{
			"buffer":0,
			"byteLength":1860,
			"byteOffset":40532,
			"target":34963
		},
		{
			"buffer":0,
			"byteLength":61728,
			"byteOffset":42392,
			"target":34962
		},
		{
			"buffer":0,
			"byteLength":41152,
			"byteOffset":104120,
			"target":34962
		},
		{
			"buffer":0,
			"byteLength":61728,
			"byteOffset":145272,
			"target":34962
		},
		{
			"buffer":0,
			"byteLength":31104,
			"byteOffset":207000,
			"target":34963
		},
		{
			"buffer":0,
			"byteLength":1000,
			"byteOffset":238104
		},
		{
			"buffer":0,
			"byteLength":4000,
			"byteOffset":239104
		},
		{
			"buffer":0,
			"byteLength":3000,
			"byteOffset":243104
		},
		{
			"buffer":0,
			"byteLength":4000,
			"byteOffset":246104
		},
		{
			"buffer":0,
			"byteLength":3000,
			"byteOffset":250104
		},
		{
			"buffer":0,
			"byteLength":4000,
			"byteOffset":253104
		},
		{
			"buffer":0,
			"byteLength":4000,
			"byteOffset":257104
		},
		{
			"buffer":0,
			"byteLength":4000,
			"byteOffset":261104
		}
	],
	"samplers":[
		{
			"magFilter":9729,
			"minFilter":9987
		}
	],
	"buffers":[
		{
			"byteLength":265104,
			"uri":"model.bin"
		}
	]
}
