{
	"asset":{
		"generator":"Khronos glTF Blender I/O v3.5.30",
		"version":"2.0"
	},
	"scene":0,
	"scenes":[
		{
			"name":"Scene",
			"nodes":[
				0
			]
		}
	],
	"nodes":[
		{
			"mesh":0,
			"name":"rocket",
			"scale":[
				0.0010000000474974513,
				0.0010000000474974513,
				0.0010000000474974513
			]
		}
	],
	"materials":[
		{
			"doubleSided":true,
			"name":"Material.002",
			"pbrMetallicRoughness":{
				"baseColorFactor":[
					0.800000011920929,
					0.800000011920929,
					0.800000011920929,
					1
				],
				"metallicFactor":0,
				"roughnessFactor":0.5
			}
		}
	],
	"meshes":[
		{
			"name":"rocket",
			"primitives":[
				{
					"attributes":{
						"POSITION":0,
						"NORMAL":1
					},
					"indices":2,
					"material":0
				}
			]
		}
	],
	"accessors":[
		{
			"bufferView":0,
			"componentType":5126,
			"count":2210,
			"max":[
				607.239990234375,
				119.99880981445312,
				120.00341033935547
			],
			"min":[
				-512.760009765625,
				-120.00119018554688,
				-119.99658966064453
			],
			"type":"VEC3"
		},
		{
			"bufferView":1,
			"componentType":5126,
			"count":2210,
			"type":"VEC3"
		},
		{
			"bufferView":2,
			"componentType":5123,
			"count":2970,
			"type":"SCALAR"
		}
	],
	"bufferViews":[
		{
			"buffer":0,
			"byteLength":26520,
			"byteOffset":0,
			"target":34962
		},
		{
			"buffer":0,
			"byteLength":26520,
			"byteOffset":26520,
			"target":34962
		},
		{
			"buffer":0,
			"byteLength":5940,
			"byteOffset":53040,
			"target":34963
		}
	],
	"buffers":[
		{
			"byteLength":58980,
			"uri":"model.bin"
		}
	]
}
