{
	"asset":{
		"generator":"Khronos glTF Blender I/O v3.5.30",
		"version":"2.0"
	},
	"scene":0,
	"scenes":[
		{
			"name":"Scene",
			"nodes":[
				2
			]
		}
	],
	"nodes":[
		{
			"mesh":0,
			"name":"Object001_Material #85_0.001",
			"rotation":[
				0,
				-0.00023526464065071195,
				0.012161262333393097,
				0.9999260306358337
			],
			"translation":[
				0.654080867767334,
				1.6531325578689575,
				-93.55343627929688
			]
		},
		{
			"mesh":1,
			"name":"Object002_Material #86_0",
			"translation":[
				0.43302416801452637,
				-0.007289976347237825,
				-0.013421500101685524
			]
		},
		{
			"children":[
				0,
				1
			],
			"mesh":2,
			"name":"Object001_Material #85_0",
			"rotation":[
				0.500464916229248,
				-0.489756315946579,
				-0.5115914940834045,
				0.497943639755249
			],
			"scale":[
				0.026858538389205933,
				0.02685852162539959,
				0.02685852162539959
			]
		}
	],
	"animations":[
		{
			"channels":[
				{
					"sampler":0,
					"target":{
						"node":0,
						"path":"rotation"
					}
				}
			],
			"name":"Object001_Material #85_0.001Action",
			"samplers":[
				{
					"input":12,
					"interpolation":"LINEAR",
					"output":13
				}
			]
		}
	],
	"materials":[
		{
			"doubleSided":true,
			"name":"Material_85",
			"normalTexture":{
				"index":0
			},
			"occlusionTexture":{
				"index":1
			},
			"pbrMetallicRoughness":{
				"baseColorTexture":{
					"index":2
				},
				"metallicRoughnessTexture":{
					"index":1
				}
			}
		},
		{
			"alphaMode":"BLEND",
			"doubleSided":true,
			"name":"Material_86",
			"normalTexture":{
				"index":3
			},
			"occlusionTexture":{
				"index":4
			},
			"pbrMetallicRoughness":{
				"baseColorTexture":{
					"index":5
				},
				"metallicRoughnessTexture":{
					"index":4
				}
			}
		}
	],
	"meshes":[
		{
			"name":"Object001_Material #85_0.001",
			"primitives":[
				{
					"attributes":{
						"POSITION":0,
						"TEXCOORD_0":1,
						"NORMAL":2
					},
					"indices":3,
					"material":0
				}
			]
		},
		{
			"name":"Object002_Material #86_0",
			"primitives":[
				{
					"attributes":{
						"POSITION":4,
						"TEXCOORD_0":5,
						"NORMAL":6
					},
					"indices":7,
					"material":1
				}
			]
		},
		{
			"name":"Object001_Material #85_0",
			"primitives":[
				{
					"attributes":{
						"POSITION":8,
						"TEXCOORD_0":9,
						"NORMAL":10
					},
					"indices":11,
					"material":0
				}
			]
		}
	],
	"textures":[
		{
			"sampler":0,
			"source":0
		},
		{
			"sampler":0,
			"source":1
		},
		{
			"sampler":0,
			"source":2
		},
		{
			"sampler":0,
			"source":0
		},
		{
			"sampler":0,
			"source":1
		},
		{
			"sampler":0,
			"source":3
		}
	],
	"images":[
		{
			"mimeType":"image/png",
			"name":"Material_85_normal",
			"uri":"../textures/Material_85_normal.png"
		},
		{
			"mimeType":"image/png",
			"name":"Material_85_metallicRoughness",
			"uri":"../textures/Material_85_metallicRoughness.png"
		},
		{
			"mimeType":"image/png",
			"name":"Material_85_baseColor",
			"uri":"../textures/Material_85_baseColor.png"
		},
		{
			"mimeType":"image/png",
			"name":"Material_86_baseColor",
			"uri":"../textures/Material_86_baseColor.png"
		}
	],
	"accessors":[
		{
			"bufferView":0,
			"componentType":5126,
			"count":434,
			"max":[
				47.65195083618164,
				45.81351852416992,
				8.430004119873047
			],
			"min":[
				-44.84157943725586,
				-46.680049896240234,
				-14.827106475830078
			],
			"type":"VEC3"
		},
		{
			"bufferView":1,
			"componentType":5126,
			"count":434,
			"type":"VEC2"
		},
		{
			"bufferView":2,
			"componentType":5126,
			"count":434,
			"type":"VEC3"
		},
		{
			"bufferView":3,
			"componentType":5123,
			"count":1149,
			"type":"SCALAR"
		},
		{
			"bufferView":4,
			"componentType":5126,
			"count":64,
			"max":[
				10.382345199584961,
				-10.898815155029297,
				72.50466918945312
			],
			"min":[
				-9.764045715332031,
				-22.68301010131836,
				27.95224952697754
			],
			"type":"VEC3"
		},
		{
			"bufferView":5,
			"componentType":5126,
			"count":64,
			"type":"VEC2"
		},
		{
			"bufferView":6,
			"componentType":5126,
			"count":64,
			"type":"VEC3"
		},
		{
			"bufferView":7,
			"componentType":5123,
			"count":114,
			"type":"SCALAR"
		},
		{
			"bufferView":8,
			"componentType":5126,
			"count":5762,
			"max":[
				208.80136108398438,
				40.56378936767578,
				240.7910614013672
			],
			"min":[
				-207.86325073242188,
				-51.42878723144531,
				-87.24759674072266
			],
			"type":"VEC3"
		},
		{
			"bufferView":9,
			"componentType":5126,
			"count":5762,
			"type":"VEC2"
		},
		{
			"bufferView":10,
			"componentType":5126,
			"count":5762,
			"type":"VEC3"
		},
		{
			"bufferView":11,
			"componentType":5123,
			"count":17628,
			"type":"SCALAR"
		},
		{
			"bufferView":12,
			"componentType":5126,
			"count":250,
			"max":[
				10.416666666666666
			],
			"min":[
				0.041666666666666664
			],
			"type":"SCALAR"
		},
		{
			"bufferView":13,
			"componentType":5126,
			"count":250,
			"type":"VEC4"
		}
	],
	"bufferViews":[
		{
			"buffer":0,
			"byteLength":5208,
			"byteOffset":0,
			"target":34962
		},
		{
			"buffer":0,
			"byteLength":3472,
			"byteOffset":5208,
			"target":34962
		},
		{
			"buffer":0,
			"byteLength":5208,
			"byteOffset":8680,
			"target":34962
		},
		{
			"buffer":0,
			"byteLength":2298,
			"byteOffset":13888,
			"target":34963
		},
		{
			"buffer":0,
			"byteLength":768,
			"byteOffset":16188,
			"target":34962
		},
		{
			"buffer":0,
			"byteLength":512,
			"byteOffset":16956,
			"target":34962
		},
		{
			"buffer":0,
			"byteLength":768,
			"byteOffset":17468,
			"target":34962
		},
		{
			"buffer":0,
			"byteLength":228,
			"byteOffset":18236,
			"target":34963
		},
		{
			"buffer":0,
			"byteLength":69144,
			"byteOffset":18464,
			"target":34962
		},
		{
			"buffer":0,
			"byteLength":46096,
			"byteOffset":87608,
			"target":34962
		},
		{
			"buffer":0,
			"byteLength":69144,
			"byteOffset":133704,
			"target":34962
		},
		{
			"buffer":0,
			"byteLength":35256,
			"byteOffset":202848,
			"target":34963
		},
		{
			"buffer":0,
			"byteLength":1000,
			"byteOffset":238104
		},
		{
			"buffer":0,
			"byteLength":4000,
			"byteOffset":239104
		}
	],
	"samplers":[
		{
			"magFilter":9729,
			"minFilter":9987
		}
	],
	"buffers":[
		{
			"byteLength":243104,
			"uri":"model.bin"
		}
	]
}
