{
	"asset":{
		"generator":"Khronos glTF Blender I/O v3.5.30",
		"version":"2.0"
	},
	"scene":0,
	"scenes":[
		{
			"name":"Scene",
			"nodes":[
				2
			]
		}
	],
	"nodes":[
		{
			"mesh":0,
			"name":"box",
			"translation":[
				-0.00010449641558807343,
				-0.0014179133577272296,
				-0.024893494322896004
			]
		},
		{
			"mesh":1,
			"name":"tape",
			"scale":[
				0.05000000074505806,
				0.05000000074505806,
				0.05288134515285492
			],
			"translation":[
				0,
				-0.0015423775184899569,
				0.09033079445362091
			]
		},
		{
			"children":[
				0,
				1
			],
			"name":"Empty",
			"rotation":[
				0.7071068286895752,
				-0.7071068286895752,
				0,
				3.090862321641907e-08
			]
		}
	],
	"materials":[
		{
			"doubleSided":true,
			"name":"box",
			"normalTexture":{
				"index":0
			},
			"pbrMetallicRoughness":{
				"baseColorTexture":{
					"index":1
				},
				"metallicRoughnessTexture":{
					"index":2
				}
			}
		},
		{
			"doubleSided":true,
			"name":"tape",
			"normalTexture":{
				"index":3
			},
			"pbrMetallicRoughness":{
				"baseColorTexture":{
					"index":4
				},
				"metallicRoughnessTexture":{
					"index":5
				}
			}
		}
	],
	"meshes":[
		{
			"name":"Cube.001",
			"primitives":[
				{
					"attributes":{
						"POSITION":0,
						"TEXCOORD_0":1,
						"NORMAL":2
					},
					"indices":3,
					"material":0
				}
			]
		},
		{
			"name":"Plane",
			"primitives":[
				{
					"attributes":{
						"POSITION":4,
						"TEXCOORD_0":5,
						"NORMAL":6
					},
					"indices":7,
					"material":1
				}
			]
		}
	],
	"textures":[
		{
			"sampler":0,
			"source":0
		},
		{
			"sampler":0,
			"source":1
		},
		{
			"sampler":0,
			"source":2
		},
		{
			"sampler":0,
			"source":3
		},
		{
			"sampler":0,
			"source":4
		},
		{
			"sampler":0,
			"source":5
		}
	],
	"images":[
		{
			"mimeType":"image/png",
			"name":"box-package_box_Normal",
			"uri":"../textures/box-package_box_Normal.png"
		},
		{
			"mimeType":"image/png",
			"name":"box-package_box_BaseColor",
			"uri":"../textures/box-package_box_BaseColor.png"
		},
		{
			"mimeType":"image/png",
			"name":"box-package_box_Metallic-box-package_box_Roughness",
			"uri":"../textures/box-package_box_Metallic-box-package_box_Roughness.png"
		},
		{
			"mimeType":"image/png",
			"name":"box-package_tape_Normal",
			"uri":"../textures/box-package_tape_Normal.png"
		},
		{
			"mimeType":"image/png",
			"name":"box-package_tape_BaseColor",
			"uri":"../textures/box-package_tape_BaseColor.png"
		},
		{
			"mimeType":"image/png",
			"name":"box-package_tape_Metallic-box-package_tape_Roughness",
			"uri":"../textures/box-package_tape_Metallic-box-package_tape_Roughness.png"
		}
	],
	"accessors":[
		{
			"bufferView":0,
			"componentType":5126,
			"count":538,
			"max":[
				0.25010448694229126,
				0.4286781847476959,
				0.20449435710906982
			],
			"min":[
				-0.24989549815654755,
				-0.4293253421783447,
				-0.15009666979312897
			],
			"type":"VEC3"
		},
		{
			"bufferView":1,
			"componentType":5126,
			"count":538,
			"type":"VEC2"
		},
		{
			"bufferView":2,
			"componentType":5126,
			"count":538,
			"type":"VEC3"
		},
		{
			"bufferView":3,
			"componentType":5123,
			"count":2484,
			"type":"SCALAR"
		},
		{
			"bufferView":4,
			"componentType":5126,
			"count":148,
			"max":[
				1,
				8.595776557922363,
				1.69887113571167
			],
			"min":[
				-1,
				-8.596412658691406,
				-1.69887113571167
			],
			"type":"VEC3"
		},
		{
			"bufferView":5,
			"componentType":5126,
			"count":148,
			"type":"VEC2"
		},
		{
			"bufferView":6,
			"componentType":5126,
			"count":148,
			"type":"VEC3"
		},
		{
			"bufferView":7,
			"componentType":5123,
			"count":456,
			"type":"SCALAR"
		}
	],
	"bufferViews":[
		{
			"buffer":0,
			"byteLength":6456,
			"byteOffset":0,
			"target":34962
		},
		{
			"buffer":0,
			"byteLength":4304,
			"byteOffset":6456,
			"target":34962
		},
		{
			"buffer":0,
			"byteLength":6456,
			"byteOffset":10760,
			"target":34962
		},
		{
			"buffer":0,
			"byteLength":4968,
			"byteOffset":17216,
			"target":34963
		},
		{
			"buffer":0,
			"byteLength":1776,
			"byteOffset":22184,
			"target":34962
		},
		{
			"buffer":0,
			"byteLength":1184,
			"byteOffset":23960,
			"target":34962
		},
		{
			"buffer":0,
			"byteLength":1776,
			"byteOffset":25144,
			"target":34962
		},
		{
			"buffer":0,
			"byteLength":912,
			"byteOffset":26920,
			"target":34963
		}
	],
	"samplers":[
		{
			"magFilter":9729,
			"minFilter":9987
		}
	],
	"buffers":[
		{
			"byteLength":27832,
			"uri":"model.bin"
		}
	]
}
