{
	"asset":{
		"generator":"Khronos glTF Blender I/O v3.5.30",
		"version":"2.0"
	},
	"scene":0,
	"scenes":[
		{
			"name":"Scene",
			"nodes":[
				0
			]
		}
	],
	"nodes":[
		{
			"mesh":0,
			"name":"Drone_Left_Missile_01.001",
			"rotation":[
				0.5196631550788879,
				-0.5196632146835327,
				-0.47953134775161743,
				0.47953131794929504
			],
			"scale":[
				0.029999999329447746,
				0.029999999329447746,
				0.029999999329447746
			]
		}
	],
	"animations":[
		{
			"channels":[
				{
					"sampler":0,
					"target":{
						"node":0,
						"path":"translation"
					}
				}
			],
			"name":"Drone_Left_Missile_01.001Action",
			"samplers":[
				{
					"input":4,
					"interpolation":"LINEAR",
					"output":5
				}
			]
		}
	],
	"materials":[
		{
			"doubleSided":true,
			"emissiveFactor":[
				1,
				1,
				1
			],
			"emissiveTexture":{
				"index":0
			},
			"name":"Body",
			"normalTexture":{
				"index":1
			},
			"pbrMetallicRoughness":{
				"baseColorTexture":{
					"index":2
				},
				"metallicRoughnessTexture":{
					"index":3
				}
			}
		}
	],
	"meshes":[
		{
			"name":"Drone_L_Missile_01.001",
			"primitives":[
				{
					"attributes":{
						"POSITION":0,
						"TEXCOORD_0":1,
						"NORMAL":2
					},
					"indices":3,
					"material":0
				}
			]
		}
	],
	"textures":[
		{
			"sampler":0,
			"source":0
		},
		{
			"sampler":0,
			"source":1
		},
		{
			"sampler":0,
			"source":2
		},
		{
			"sampler":0,
			"source":3
		}
	],
	"images":[
		{
			"mimeType":"image/jpeg",
			"name":"DroneIllumination",
			"uri":"../textures/DroneIllumination.jpg"
		},
		{
			"mimeType":"image/jpeg",
			"name":"DroneNormal",
			"uri":"../textures/DroneNormal.jpg"
		},
		{
			"mimeType":"image/jpeg",
			"name":"DroneDiffuse",
			"uri":"../textures/DroneDiffuse.jpg"
		},
		{
			"mimeType":"image/png",
			"name":"MetalRough",
			"uri":"../textures/MetalRough.png"
		}
	],
	"accessors":[
		{
			"bufferView":0,
			"componentType":5126,
			"count":4368,
			"max":[
				5.08905029296875,
				7.13427734375,
				27.56696128845215
			],
			"min":[
				-5.09356689453125,
				-6.4969482421875,
				-38.59702682495117
			],
			"type":"VEC3"
		},
		{
			"bufferView":1,
			"componentType":5126,
			"count":4368,
			"type":"VEC2"
		},
		{
			"bufferView":2,
			"componentType":5126,
			"count":4368,
			"type":"VEC3"
		},
		{
			"bufferView":3,
			"componentType":5123,
			"count":4368,
			"type":"SCALAR"
		},
		{
			"bufferView":4,
			"componentType":5126,
			"count":1,
			"max":[
				0.875
			],
			"min":[
				0.875
			],
			"type":"SCALAR"
		},
		{
			"bufferView":5,
			"componentType":5126,
			"count":1,
			"type":"VEC3"
		}
	],
	"bufferViews":[
		{
			"buffer":0,
			"byteLength":52416,
			"byteOffset":0,
			"target":34962
		},
		{
			"buffer":0,
			"byteLength":34944,
			"byteOffset":52416,
			"target":34962
		},
		{
			"buffer":0,
			"byteLength":52416,
			"byteOffset":87360,
			"target":34962
		},
		{
			"buffer":0,
			"byteLength":8736,
			"byteOffset":139776,
			"target":34963
		},
		{
			"buffer":0,
			"byteLength":4,
			"byteOffset":148512
		},
		{
			"buffer":0,
			"byteLength":12,
			"byteOffset":148516
		}
	],
	"samplers":[
		{
			"magFilter":9729,
			"minFilter":9987
		}
	],
	"buffers":[
		{
			"byteLength":148528,
			"uri":"model.bin"
		}
	]
}
