{
	"asset":{
		"generator":"Khronos glTF Blender I/O v3.5.30",
		"version":"2.0"
	},
	"scene":0,
	"scenes":[
		{
			"name":"Scene",
			"nodes":[
				4
			]
		}
	],
	"nodes":[
		{
			"mesh":0,
			"name":"Bullet_bullet_0",
			"scale":[
				0.01242275070399046,
				0.012420821003615856,
				0.012421857565641403
			]
		},
		{
			"children":[
				0
			],
			"name":"Bullet"
		},
		{
			"children":[
				1
			],
			"name":"RootNode"
		},
		{
			"children":[
				2
			],
			"name":"Bullet.fbx",
			"rotation":[
				0.70710688829422,
				0,
				0,
				0.7071066498756409
			]
		},
		{
			"children":[
				3
			],
			"name":"Sketchfab_model",
			"rotation":[
				-0.70710688829422,
				0,
				0,
				0.7071066498756409
			]
		}
	],
	"materials":[
		{
			"doubleSided":true,
			"name":"bullet",
			"normalTexture":{
				"index":0
			},
			"occlusionTexture":{
				"index":1
			},
			"pbrMetallicRoughness":{
				"baseColorTexture":{
					"index":2
				},
				"metallicRoughnessTexture":{
					"index":1
				}
			}
		}
	],
	"meshes":[
		{
			"name":"Bullet_bullet_0",
			"primitives":[
				{
					"attributes":{
						"POSITION":0,
						"TEXCOORD_0":1,
						"NORMAL":2
					},
					"indices":3,
					"material":0
				}
			]
		}
	],
	"textures":[
		{
			"sampler":0,
			"source":0
		},
		{
			"sampler":0,
			"source":1
		},
		{
			"sampler":0,
			"source":2
		}
	],
	"images":[
		{
			"mimeType":"image/png",
			"name":"bullet_normal",
			"uri":"../textures/bullet_normal.png"
		},
		{
			"mimeType":"image/png",
			"name":"bullet_metallicRoughness",
			"uri":"../textures/bullet_metallicRoughness.png"
		},
		{
			"mimeType":"image/png",
			"name":"bullet_baseColor",
			"uri":"../textures/bullet_baseColor.png"
		}
	],
	"accessors":[
		{
			"bufferView":0,
			"componentType":5126,
			"count":248,
			"max":[
				1.4576482772827148,
				0.4878901243209839,
				0.4966050386428833
			],
			"min":[
				-1.4576480388641357,
				-0.4878905415534973,
				-0.49744895100593567
			],
			"type":"VEC3"
		},
		{
			"bufferView":1,
			"componentType":5126,
			"count":248,
			"type":"VEC2"
		},
		{
			"bufferView":2,
			"componentType":5126,
			"count":248,
			"type":"VEC3"
		},
		{
			"bufferView":3,
			"componentType":5123,
			"count":735,
			"type":"SCALAR"
		}
	],
	"bufferViews":[
		{
			"buffer":0,
			"byteLength":2976,
			"byteOffset":0,
			"target":34962
		},
		{
			"buffer":0,
			"byteLength":1984,
			"byteOffset":2976,
			"target":34962
		},
		{
			"buffer":0,
			"byteLength":2976,
			"byteOffset":4960,
			"target":34962
		},
		{
			"buffer":0,
			"byteLength":1470,
			"byteOffset":7936,
			"target":34963
		}
	],
	"samplers":[
		{
			"magFilter":9729,
			"minFilter":9987
		}
	],
	"buffers":[
		{
			"byteLength":9408,
			"uri":"model.bin"
		}
	]
}
